<?xml version="1.0"?>
<svg width="640" height="480" xmlns="http://www.w3.org/2000/svg" xmlns:svg="http://www.w3.org/2000/svg">
 <!-- Created with SVG-edit - http://svg-edit.googlecode.com/ -->
 <g>
  <title>Layer 1</title>
  <path stroke="#2d0000" transform="rotate(-5 315.0202026367189,209.92156982421835) " id="svg_1" d="m28.020202,69.383588l0,0c0,19.404241 64.247146,35.134499 143.50002,35.134499c79.252835,0 143.499962,-15.730257 143.499962,-35.134499l0,0c0,-19.404253 64.247165,-35.134499 143.500039,-35.134499c79.252874,0 143.499962,15.730257 143.499962,35.134499l0,281.075988c0,-19.404241 -64.247107,-35.134522 -143.499962,-35.134522c-79.252874,0 -143.500039,15.730269 -143.500039,35.134522c0,19.404229 -64.247127,35.134487 -143.499962,35.134487c-79.252874,0 -143.50002,-15.730257 -143.50002,-35.134487l0,-281.075988z" stroke-linecap="null" stroke-linejoin="null" stroke-dasharray="null" stroke-width="27" fill="#8cba0e"/>
  <text font-weight="bold" stroke="#3f0000" transform="matrix(7.596708390859649,0,0,8.0385065653789,-1097.6042492157906,-1337.9592317129052) " xml:space="preserve" text-anchor="middle" font-family="Monospace" font-size="24" id="svg_3" y="199.708978" x="186.614386" stroke-linecap="null" stroke-linejoin="null" stroke-dasharray="null" fill="#ed130b">START</text>
  <line stroke="#2d0000" transform="rotate(10 281.50000000000057,426.49999999999983) " id="svg_4" y2="393.580174" x2="233.788292" y1="459.41983" x1="329.211706" stroke-linecap="null" stroke-linejoin="null" stroke-dasharray="null" stroke-width="27" fill="none"/>
  <line stroke="#2d0000" id="svg_5" transform="rotate(10 377.19070434570415,382.76791381835926) " y2="307.299168" x2="407.190678" y1="458.236658" x1="347.190661" stroke-linecap="null" stroke-linejoin="null" stroke-dasharray="null" stroke-width="27" fill="none"/>
 </g>
</svg>