<?xml version="1.0"?>
<svg width="640" height="480" xmlns="http://www.w3.org/2000/svg" xmlns:svg="http://www.w3.org/2000/svg">
 <!-- Created with SVG-edit - http://svg-edit.googlecode.com/ -->
 <g>
  <title>Layer 1</title>
  <g id="svg_4"/>
  <g stroke="null" id="svg_5">
   <path stroke="#636262" fill="#faff00" stroke-width="5" stroke-dasharray="null" stroke-linejoin="null" stroke-linecap="null" d="m763.676295,180.409997l191.329825,0l0,0c12.686385,0 24.853098,2.402329 33.823687,6.67851c8.970589,4.27618 14.010229,10.075927 14.010229,16.123358l0,114.006613c0,0.000615 -0.001117,0.001134 -0.002408,0.001134l-286.995239,-0.001134l0,0c-0.00131,0 -0.002408,-0.000505 -0.002408,-0.001147l0.002408,-114.00546l0,0c0,-12.593125 21.415942,-22.801868 47.833906,-22.801868l0,-0.000005z" id="svg_18"/>
   <circle stroke="#5b5252" fill="#faff00" stroke-width="5" stroke-dasharray="null" stroke-linejoin="null" stroke-linecap="null" cx="773.787803" cy="319.179319" r="24.689648" id="svg_19"/>
   <circle stroke="#5b5252" fill="#faff00" stroke-width="5" stroke-dasharray="null" stroke-linejoin="null" stroke-linecap="null" cx="952.418511" cy="317.330541" r="25.81572" id="svg_20"/>
   <rect stroke="#636262" fill="#ffffff" stroke-width="5" stroke-dasharray="null" stroke-linejoin="null" stroke-linecap="null" x="723.175789" y="210.717646" width="271.518637" height="52.998315" id="svg_21"/>
   <line stroke="#636262" fill="none" stroke-width="5" stroke-dasharray="null" stroke-linejoin="null" stroke-linecap="null" x1="786.291953" y1="211.95016" x2="787.482825" y2="262.483441" id="svg_22"/>
   <line stroke="#636262" fill="none" stroke-width="5" stroke-dasharray="null" stroke-linejoin="null" stroke-linecap="null" x1="918.478674" y1="210.717642" x2="919.669545" y2="262.483441" id="svg_23"/>
   <line stroke="#636262" fill="none" stroke-width="5" stroke-dasharray="null" stroke-linejoin="null" stroke-linecap="null" x1="854.171621" y1="210.717642" x2="855.362492" y2="264.948479" id="svg_24"/>
   <line stroke="#636262" fill="none" stroke-width="5" stroke-dasharray="null" stroke-linejoin="null" stroke-linecap="null" x1="992.312687" y1="227.972909" x2="721.984902" y2="225.50787" id="svg_25"/>
   <circle stroke="#636262" fill="#feffea" stroke-width="5" stroke-dasharray="null" stroke-linejoin="null" stroke-linecap="null" cx="774.383238" cy="319.179316" r="8.134789" id="svg_28"/>
   <circle stroke="#636262" fill="#fefff4" stroke-width="5" stroke-dasharray="null" stroke-linejoin="null" stroke-linecap="null" cx="953.013943" cy="316.714279" r="8.587499" id="svg_29"/>
  </g>
  <circle stroke="#473a37" transform="rotate(-0.25049108266830444 308.64334106444744,239.01942443847693) " id="svg_6" r="215.164108" cy="239.019428" cx="308.643343" opacity="0.9" stroke-linecap="null" stroke-linejoin="null" stroke-dasharray="null" stroke-width="18" fill="#17ad06"/>
  <circle id="svg_7" r="1" cy="452" cx="7" opacity="0.9" stroke-linecap="null" stroke-linejoin="null" stroke-dasharray="null" stroke-width="0" stroke="#081601" fill="#bc3609"/>
 </g>
</svg>