<?xml version="1.0"?>
<svg width="640" height="480" xmlns="http://www.w3.org/2000/svg" xmlns:svg="http://www.w3.org/2000/svg">
 <!-- Created with SVG-edit - http://svg-edit.googlecode.com/ -->
 <g>
  <title>Layer 1</title>
  <g id="svg_4"/>
  <path fill="#ffffff" stroke-width="5" stroke-dasharray="null" stroke-linejoin="null" stroke-linecap="null" d="m381.37112,236.73365c-6.31279,-11.04343 -14.04105,-19.98621 -21.78997,-26.23815c-9.04041,6.41199 -20.05421,10.3132 -32.05988,10.3132c-12.02633,0 -23.05046,-3.91121 -32.08054,-10.3132c-7.74893,6.25194 -15.47719,15.19472 -21.81064,26.23815c-14.69196,25.63796 -16.30373,51.93613 -3.61616,58.75825c5.68254,3.07095 11.64405,0.78024 17.80186,-4.96154c-1.08485,5.8218 -1.7151,12.13377 -1.7151,18.73582c0,29.32911 11.76803,53.08649 26.27402,53.08649c8.74079,0 13.06985,-8.65269 15.14656,-21.8968c2.07671,13.24411 6.40578,21.8968 15.11557,21.8968c14.52665,0 26.29468,-23.75738 26.29468,-53.08649c0,-6.60205 -0.63025,-12.91401 -1.73576,-18.73582c6.17848,5.74178 12.12965,8.03249 17.82253,4.96154c12.68757,-6.82212 11.04479,-33.12029 -3.64716,-58.75825l-0.00001,0zm-53.86018,-25.92806c24.40394,0 44.19986,-19.16595 44.19986,-42.80329s-19.79592,-42.8033 -44.19986,-42.8033c-24.41428,0 -44.22053,19.16595 -44.22053,42.8033s19.80625,42.80329 44.22053,42.80329z" id="svg_17" opacity="0.75" stroke="#7a2a04"/>
  <circle opacity="0.75" id="svg_1" r="191.02356" cy="237" cx="328" stroke-linecap="null" stroke-linejoin="null" stroke-dasharray="null" stroke-width="34" stroke="#3f342f" fill="#e892b1"/>
  <path stroke="#0d3f03" id="svg_2" d="m375.303554,237.808976c-5.669816,-10.384342 -12.610932,-18.793401 -19.570607,-24.672218c-8.119621,6.029314 -18.01164,9.697696 -28.794497,9.697696c-10.801416,0 -20.702715,-3.677788 -28.813057,-9.697696c-6.959675,5.878817 -13.900792,14.287876 -19.589167,24.672218c-13.195545,24.107852 -14.643157,48.836506 -3.247849,55.251471c5.103762,2.887675 10.458072,0.733676 15.988695,-4.665429c-0.974355,5.474354 -1.540408,11.409608 -1.540408,17.617638c0,27.578705 10.569427,49.918209 23.59794,49.918209c7.850514,0 11.738653,-8.136282 13.603846,-20.589968c1.865193,12.453685 5.753332,20.589968 13.576007,20.589968c13.047072,0 23.616499,-22.339504 23.616499,-49.918209c0,-6.20803 -0.566054,-12.143284 -1.558967,-17.617638c5.549181,5.399105 10.894212,7.553104 16.007254,4.665429c11.395309,-6.414965 9.919857,-31.143619 -3.275687,-55.251471zm-48.374384,-24.380629c21.918338,0 39.697989,-18.022101 39.697989,-40.248731s-17.779651,-40.248731 -39.697989,-40.248731c-21.927618,0 -39.716548,18.022101 -39.716548,40.248731s17.788931,40.248731 39.716548,40.248731z" stroke-linecap="null" stroke-linejoin="null" stroke-dasharray="null" stroke-width="15" fill="#4063c4"/>
 </g>
</svg>