<?xml version="1.0"?>
<svg width="640" height="480" xmlns="http://www.w3.org/2000/svg" xmlns:svg="http://www.w3.org/2000/svg">
 <!-- Created with SVG-edit - http://svg-edit.googlecode.com/ -->

 <g>
  <title>Layer 1</title>
  <g id="svg_4"/>
  <path opacity="0.7" stroke="#720f00" id="svg_15" d="m311.6788,5.5c-81.834203,0 -148.178783,61.600258 -148.178783,137.582469c0,76.000556 148.178783,332.41759 148.178783,332.41759s148.178783,-256.417034 148.178783,-332.41759c0,-75.982212 -66.324823,-137.582469 -148.178783,-137.582469zm0,203.328545c-39.099442,0 -70.809701,-29.424304 -70.809701,-65.746076s31.71026,-65.746076 70.809701,-65.746076s70.809701,29.442648 70.809701,65.746076s-31.71026,65.746076 -70.809701,65.746076z" stroke-linecap="null" stroke-linejoin="null" stroke-dasharray="null" stroke-width="5" fill="#a81e17"/>
  <path stroke="#7a2a04" opacity="0.75" id="svg_17" d="m365.371124,211.733646c-6.31279,-11.04343 -14.04105,-19.986208 -21.789973,-26.23815c-9.040411,6.411992 -20.054214,10.313204 -32.05988,10.313204c-12.026329,0 -23.050465,-3.911215 -32.080544,-10.313204c-7.748924,6.251942 -15.477183,15.19472 -21.810637,26.23815c-14.691959,25.637964 -16.303735,51.936133 -3.616164,58.758252c5.682544,3.070954 11.644049,0.780242 17.801861,-4.961541c-1.084849,5.821808 -1.715095,12.133769 -1.715095,18.73582c0,29.32911 11.768032,53.08649 26.274017,53.08649c8.740786,0 13.069851,-8.652688 15.146563,-21.896802c2.076712,13.244114 6.405777,21.896802 15.115567,21.896802c14.526649,0 26.294681,-23.75738 26.294681,-53.08649c0,-6.602051 -0.630246,-12.914011 -1.735759,-18.73582c6.178475,5.741784 12.129648,8.032495 17.822524,4.961541c12.687571,-6.822119 11.044799,-33.120288 -3.64716,-58.758252zm-53.860185,-25.928054c24.403943,0 44.19986,-19.165953 44.19986,-42.803296s-19.795917,-42.803296 -44.19986,-42.803296c-24.414275,0 -44.220524,19.165953 -44.220524,42.803296s19.806249,42.803296 44.220524,42.803296z" stroke-linecap="null" stroke-linejoin="null" stroke-dasharray="null" stroke-width="5" fill="#ffffff"/>
 </g>
</svg>