<?xml version="1.0"?>
<svg width="640" height="480" xmlns="http://www.w3.org/2000/svg" xmlns:svg="http://www.w3.org/2000/svg">
 <!-- Created with SVG-edit - http://svg-edit.googlecode.com/ -->

 <g>
  <title>Layer 1</title>
  <g id="svg_4"/>
  <path opacity="0.5" stroke="#000000" id="svg_15" d="m311.6788,5.5c-81.834203,0 -148.178783,61.600258 -148.178783,137.582469c0,76.000556 148.178783,332.41759 148.178783,332.41759s148.178783,-256.417034 148.178783,-332.41759c0,-75.982212 -66.324823,-137.582469 -148.178783,-137.582469zm0,203.328545c-39.099442,0 -70.809701,-29.424304 -70.809701,-65.746076s31.71026,-65.746076 70.809701,-65.746076s70.809701,29.442648 70.809701,65.746076s-31.71026,65.746076 -70.809701,65.746076z" stroke-linecap="null" stroke-linejoin="null" stroke-dasharray="null" stroke-width="5" fill="#a81e17"/>
  <path opacity="0.75" id="svg_17" d="m357.400734,204.213571c-5.261426,-9.506734 -11.702583,-17.205122 -18.160962,-22.587105c-7.534776,5.519761 -16.714285,8.878119 -26.720468,8.878119c-10.023405,0 -19.211525,-3.366968 -26.73769,-8.878119c-6.458379,5.381983 -12.899536,13.080371 -18.178185,22.587105c-12.245087,22.070435 -13.58843,44.709207 -3.01391,50.582026c4.736145,2.64363 9.704791,0.671671 14.83705,-4.271141c-0.904173,5.011702 -1.429455,10.445352 -1.429455,16.128726c0,25.247957 9.808125,45.699491 21.898211,45.699491c7.285052,0 10.893133,-7.448664 12.623979,-18.849856c1.730846,11.401192 5.338927,18.849856 12.598145,18.849856c12.107308,0 21.915433,-20.451534 21.915433,-45.699491c0,-5.683374 -0.525282,-11.117023 -1.446677,-16.128726c5.149481,4.942813 10.109516,6.914771 14.854272,4.271141c10.57452,-5.87282 9.205343,-28.511591 -3.039744,-50.582026zm-44.890041,-22.320159c20.339589,0 36.838595,-16.499006 36.838595,-36.847206s-16.499006,-36.847206 -36.838595,-36.847206c-20.3482,0 -36.855817,16.499006 -36.855817,36.847206s16.507617,36.847206 36.855817,36.847206z" stroke-linecap="null" stroke-linejoin="null" stroke-dasharray="null" stroke-width="5" stroke="#000000" fill="#ff0000"/>
 </g>
</svg>