<?xml version="1.0"?>
<svg width="640" height="480" xmlns="http://www.w3.org/2000/svg" xmlns:svg="http://www.w3.org/2000/svg">
 <!-- Created with SVG-edit - http://svg-edit.googlecode.com/ -->
 <g>
  <title>Layer 1</title>
  <line stroke="#6d0000" transform="rotate(10 283.49999999999994,427) " id="svg_4" y2="393.476012" x2="265.129129" y1="460.523992" x1="301.870862" stroke-linecap="null" stroke-linejoin="null" stroke-dasharray="null" stroke-width="27" fill="none"/>
  <line stroke="#6b0000" id="svg_5" transform="rotate(10 368.5611267089843,382.50958251953097) " y2="304.231494" x2="401.488213" y1="460.787617" x1="335.634027" stroke-linecap="null" stroke-linejoin="null" stroke-dasharray="null" stroke-width="27" fill="none"/>
  <polygon opacity="0" stroke-width="27" stroke="#6d0000" points="198.56710053890137,296 198.1752437040397,296.5393446629166 197.5412060265096,296.3333333333333 197.5412060265096,295.6666666666667 198.1752437040397,295.4606553370834 198.56710053890137,296 " strokeWidth="27" strokecolor="#6d0000" fill="none" edge="0.666667" orient="x" sides="5" shape="regularPoly" id="svg_7" cy="296" cx="198"/>
  <path id="svg_10" d="m298,298.5l0,0c0,-0.276142 0.223858,-0.5 0.5,-0.5l0,0c0.132608,0 0.259785,0.052678 0.353553,0.146447c0.093768,0.093768 0.146447,0.220945 0.146447,0.353553l0,0c0,0.276142 -0.223858,0.5 -0.5,0.5l0,0c-0.276142,0 -0.5,-0.223858 -0.5,-0.5zm0.25,0l0,0c0,0.138071 0.111929,0.25 0.25,0.25c0.138071,0 0.25,-0.111929 0.25,-0.25c0,-0.138071 -0.111929,-0.25 -0.25,-0.25l0,0c-0.138071,0 -0.25,0.111929 -0.25,0.25z" opacity="0" stroke-linecap="null" stroke-linejoin="null" stroke-dasharray="null" stroke-width="27" fill="#ff00ff"/>
  <path stroke="#6b1500" id="svg_12" d="m129,231.000001l0,0c0,-102.172663 82.603472,-184.99999 184.499998,-184.99999l0,0c48.932421,0 95.860738,19.491003 130.461174,54.185231c34.600473,34.69424 54.038823,81.749695 54.038823,130.814759l0,0c0,102.172651 -82.603472,184.99999 -184.499998,184.99999l0,0c-101.896513,0 -184.499998,-82.827339 -184.499998,-184.99999zm92.249999,0l0,0c0,51.086319 41.301761,92.499995 92.249999,92.499995c50.948275,0 92.249999,-41.413676 92.249999,-92.499995c0,-51.086319 -41.301748,-92.499995 -92.249999,-92.499995l0,0c-50.948238,0 -92.249999,41.413688 -92.249999,92.499995z" stroke-linecap="null" stroke-linejoin="null" stroke-dasharray="null" stroke-width="16" fill="#c92800"/>
 </g>
</svg>