<svg width="580" height="400" xmlns="http://www.w3.org/2000/svg">
 <!-- Created with Method Draw - http://github.com/duopixel/Method-Draw/ -->
 <defs>
  <linearGradient id="svg_2" x1="0" y1="0" x2="1" y2="0" spreadMethod="pad">
   <stop stop-color="#fff" offset="1"/>
   <stop stop-color="#000000" offset="1"/>
  </linearGradient>
  <linearGradient id="svg_16" x1="0" y1="0" x2="1" y2="0" spreadMethod="pad">
   <stop stop-color="#97fc23" stop-opacity="0.992188" offset="0"/>
   <stop stop-color="#366d00" stop-opacity="0.980469" offset="1"/>
  </linearGradient>
  <linearGradient id="svg_18" x1="0" y1="0" x2="1" y2="0" spreadMethod="pad">
   <stop stop-color="#750000" stop-opacity="0.988281" offset="0"/>
   <stop stop-color="#f4624b" stop-opacity="0.976563" offset="1"/>
  </linearGradient>
  <linearGradient id="svg_22" x1="0" y1="1" x2="1" y2="1" spreadMethod="pad">
   <stop stop-color="#750000" stop-opacity="0.988281" offset="0"/>
   <stop stop-color="#f4624b" stop-opacity="0.976563" offset="1"/>
  </linearGradient>
 </defs>
 <g>
  <title>background</title>
  <rect x="-1" y="-1" width="582" height="402" id="canvas_background" fill="url(#svg_2)"/>
  <g id="canvasGrid" display="none">
   <rect id="svg_1" width="100%" height="100%" x="0" y="0" stroke-width="0" fill="url(#gridpattern)"/>
  </g>
 </g>
 <g>
  <title>Layer 1</title>
  <line stroke="#3d1000" fill="url(#svg_16)" stroke-width="24.5" x1="154.807723" y1="347.081453" x2="88.553172" y2="277.655661" id="svg_10" stroke-linejoin="null" stroke-linecap="null" transform="rotate(15.274507522583008 121.68045043945311,312.3685607910156) "/>
  <line stroke="#3d1000" fill="url(#svg_16)" stroke-width="21.5" x1="453.174888" y1="310.495105" x2="470.534677" y2="364.329776" id="svg_11" stroke-linejoin="null" stroke-linecap="null" transform="rotate(40.60771560668945 461.85479736328125,337.4124450683594) "/>
  <path fill="url(#svg_18)" stroke-width="19.5" stroke-opacity="null" d="m43.192504,48.993271c170.333356,-132.513589 340.666678,132.513578 511,0l0,238.52442c-170.333322,132.513599 -340.666644,-132.513568 -511,0l0,-238.52442z" id="svg_17" stroke="#3d1000" transform="rotate(-4.443536281585693 298.6925048828118,149.12878417968727) "/>
  <text fill="#ffffff" stroke-width="5" stroke-opacity="null" x="58.5" y="220.5" id="svg_19" font-size="147" font-family="Helvetica, Arial, sans-serif" text-anchor="start" xml:space="preserve" stroke="#3d1000" font-weight="bold">FINISH</text>
  <ellipse stroke="#3d1000" fill="url(#svg_22)" stroke-width="15.5" stroke-opacity="null" cx="449.999999" cy="367.5" id="svg_24" rx="14.499999" ry="3"/>
  <ellipse stroke="#3d1000" fill="url(#svg_22)" stroke-width="19.5" stroke-opacity="null" cx="139" cy="347" id="svg_21" rx="14.5" ry="3.5"/>
 </g>
</svg>