<?xml version="1.0"?>
<svg width="640" height="480" xmlns="http://www.w3.org/2000/svg" xmlns:svg="http://www.w3.org/2000/svg">
 <!-- Created with SVG-edit - http://svg-edit.googlecode.com/ -->

 <g>
  <title>Layer 1</title>
  <g id="svg_4"/>
  <path opacity="0.7" stroke="#b77407" id="svg_15" d="m317.6788,3.5c-81.834203,0 -148.178783,61.600258 -148.178783,137.582469c0,76.000556 148.178783,332.41759 148.178783,332.41759s148.178783,-256.417034 148.178783,-332.41759c0,-75.982212 -66.324823,-137.582469 -148.178783,-137.582469zm0,203.328545c-39.099442,0 -70.809701,-29.424304 -70.809701,-65.746076s31.71026,-65.746076 70.809701,-65.746076s70.809701,29.442648 70.809701,65.746076s-31.71026,65.746076 -70.809701,65.746076z" stroke-linecap="null" stroke-linejoin="null" stroke-dasharray="null" stroke-width="5" fill="#ea990e"/>
  <path stroke="#ad0a0a" id="svg_17" d="m371.281738,208.908535c-6.421683,-10.761376 -14.283251,-19.475751 -22.165841,-25.568015c-9.196354,6.248226 -20.400141,10.049799 -32.612899,10.049799c-12.233778,0 -23.448075,-3.811321 -32.633919,-10.049799c-7.882589,6.092264 -15.744158,14.806639 -22.186861,25.568015c-14.945389,24.983158 -16.584967,50.609659 -3.678542,57.257537c5.780565,2.99252 11.844904,0.760315 18.108935,-4.834821c-1.103562,5.673117 -1.74468,11.823867 -1.74468,18.257298c0,28.580031 11.971025,51.730635 26.727232,51.730635c8.89156,0 13.2953,-8.431694 15.407834,-21.337547c2.112534,12.905853 6.516274,21.337547 15.376304,21.337547c14.777227,0 26.748252,-23.150605 26.748252,-51.730635c0,-6.433431 -0.641117,-12.584181 -1.7657,-18.257298c6.285051,5.595136 12.338879,7.827341 18.129955,4.834821c12.906426,-6.647879 11.235317,-32.27438 -3.710072,-57.257537zm-54.789249,-25.265839c24.824901,0 44.962288,-18.676446 44.962288,-41.710079s-20.137388,-41.710079 -44.962288,-41.710079c-24.835411,0 -44.983308,18.676446 -44.983308,41.710079s20.147898,41.710079 44.983308,41.710079z" stroke-linecap="null" stroke-linejoin="null" stroke-dasharray="null" stroke-width="5" fill="#ed1515"/>
 </g>
</svg>